<svg width="671" height="218" viewBox="0 0 671 218" fill="none" xmlns="http://www.w3.org/2000/svg">
<path d="M152.925 83.4863C154.925 31.0863 88.4254 26.653 54.9254 31.4863L55.4254 51.5C55.4254 79.5 67.5 83.9034 91.9254 83.4863H152.925Z" fill="url(#paint0_linear_522_595)"/>
<path d="M0.425415 83.9034C0.425415 45.4034 34.4254 31.4863 51.4254 31.4863V51.5C51.4254 66.0137 47.5 83.4863 27.5 83.4863L0.425415 83.9034Z" fill="url(#paint1_linear_522_595)"/>
<path d="M91.9254 86.9863H152.925C153.951 101.786 153.353 122.82 152.925 131.486C149.325 176.286 110.759 185.486 91.9254 184.486H55.4254V122.486C54 88.5 67.5 86.9863 91.9254 86.9863Z" fill="url(#paint2_linear_522_595)"/>
<path d="M27.5 86.9863H0.49176C-0.574585 102.403 0.425415 105.903 0.425415 131.486C2.42542 169.486 35.5921 182.653 51.9254 184.486V122.486C51.4254 106.5 51.9254 86.9863 27.5 86.9863Z" fill="url(#paint3_linear_522_595)"/>
<path d="M152.925 83.4863C154.925 31.0863 88.4254 26.653 54.9254 31.4863L55.4254 51.5C55.4254 79.5 67.5 83.9034 91.9254 83.4863H152.925Z" stroke="black"/>
<path d="M0.425415 83.9034C0.425415 45.4034 34.4254 31.4863 51.4254 31.4863V51.5C51.4254 66.0137 47.5 83.4863 27.5 83.4863L0.425415 83.9034Z" stroke="black"/>
<path d="M91.9254 86.9863H152.925C153.951 101.786 153.353 122.82 152.925 131.486C149.325 176.286 110.759 185.486 91.9254 184.486H55.4254V122.486C54 88.5 67.5 86.9863 91.9254 86.9863Z" stroke="black"/>
<path d="M27.5 86.9863H0.49176C-0.574585 102.403 0.425415 105.903 0.425415 131.486C2.42542 169.486 35.5921 182.653 51.9254 184.486V122.486C51.4254 106.5 51.9254 86.9863 27.5 86.9863Z" stroke="black"/>
<path d="M234.582 175.682C225.275 175.682 217.369 174 210.866 170.636C204.362 167.272 198.531 162.338 193.373 155.835L206.493 142.715C209.744 147.425 213.613 151.125 218.098 153.816C222.584 156.395 228.302 157.685 235.255 157.685C241.758 157.685 246.916 156.339 250.729 153.648C254.653 150.957 256.616 147.256 256.616 142.547C256.616 138.622 255.607 135.427 253.588 132.96C251.57 130.493 248.879 128.474 245.515 126.904C242.263 125.222 238.619 123.765 234.582 122.531C230.657 121.186 226.676 119.728 222.64 118.158C218.715 116.476 215.071 114.402 211.707 111.935C208.455 109.468 205.82 106.272 203.801 102.347C201.783 98.4229 200.774 93.433 200.774 87.3778C200.774 80.4256 202.456 74.5387 205.82 69.717C209.296 64.7832 213.949 61.0268 219.78 58.4477C225.611 55.8687 232.115 54.5792 239.291 54.5792C247.028 54.5792 253.925 56.093 259.98 59.1205C266.147 62.1481 271.137 66.0167 274.949 70.7262L261.83 83.8457C258.466 80.0332 254.934 77.2299 251.233 75.4358C247.645 73.5295 243.496 72.5764 238.787 72.5764C232.956 72.5764 228.358 73.7538 224.994 76.1086C221.743 78.4633 220.117 81.7712 220.117 86.0323C220.117 89.6205 221.126 92.5359 223.144 94.7786C225.163 96.9091 227.798 98.7593 231.05 100.329C234.414 101.787 238.058 103.188 241.982 104.534C246.019 105.88 250 107.393 253.925 109.075C257.961 110.757 261.606 112.944 264.857 115.635C268.221 118.214 270.913 121.578 272.931 125.727C274.949 129.876 275.959 135.09 275.959 141.37C275.959 151.91 272.202 160.264 264.689 166.431C257.289 172.598 247.253 175.682 234.582 175.682ZM316.165 174.841L281.684 93.2648H302.036L325.584 153.143H319.697L344.59 93.2648H365.11L327.602 174.841H316.165ZM292.112 207.64L317.174 156.003L327.602 174.841L312.632 207.64H292.112ZM430.516 174V127.409C430.516 122.027 428.778 117.597 425.302 114.121C421.938 110.645 417.564 108.907 412.182 108.907C408.594 108.907 405.398 109.692 402.595 111.262C399.792 112.832 397.605 115.018 396.035 117.822C394.465 120.625 393.68 123.821 393.68 127.409L386.448 123.372C386.448 117.205 387.793 111.767 390.485 107.057C393.176 102.235 396.876 98.4789 401.586 95.7878C406.407 92.9845 411.79 91.5828 417.733 91.5828C423.788 91.5828 429.17 93.1527 433.88 96.2924C438.589 99.3199 442.29 103.301 444.981 108.234C447.672 113.056 449.018 118.102 449.018 123.372V174H430.516ZM375.178 174V93.2648H393.68V174H375.178Z" fill="white"/>
<path d="M459.745 145.258C495.777 192.636 531.5 175.5 550.457 163.554L547.132 159.944C544.718 157.322 542.597 154.445 540.807 151.364L538.732 147.792C523.5 156.185 520.849 156.369 511.443 156.185C495.138 155.865 483.319 145.091 478.102 136.936L485.514 131.806L461.913 126.217L452.815 149.379L459.745 145.258Z" fill="white"/>
<path d="M460.414 123.059L455.914 134.559C436.914 71.059 499.914 30.059 548.414 64.0588L554.5 59L554.5 83L527 81.559L532.914 75.5588C478.514 56.3588 465.914 106.559 473.914 126.059L460.414 123.059Z" fill="white"/>
<path d="M578.068 169.682C570.779 169.682 564.164 167.832 558.221 164.131C552.39 160.431 547.736 155.441 544.26 149.162C540.896 142.77 539.214 135.65 539.214 127.801C539.214 119.839 540.896 112.719 544.26 106.439C547.736 100.048 552.39 95.0019 558.221 91.3015C564.164 87.4891 570.779 85.5828 578.068 85.5828C584.235 85.5828 589.674 86.9284 594.383 89.6196C599.205 92.1986 603.017 95.7868 605.821 100.384C608.624 104.982 610.026 110.196 610.026 116.027V139.238C610.026 145.069 608.624 150.283 605.821 154.881C603.13 159.478 599.373 163.122 594.551 165.813C589.73 168.392 584.235 169.682 578.068 169.682ZM581.096 152.189C587.936 152.189 593.43 149.891 597.579 145.293C601.84 140.696 603.971 134.809 603.971 127.632C603.971 122.811 603.017 118.55 601.111 114.849C599.205 111.149 596.514 108.29 593.038 106.271C589.674 104.141 585.693 103.075 581.096 103.075C576.61 103.075 572.63 104.141 569.153 106.271C565.789 108.29 563.098 111.149 561.08 114.849C559.174 118.55 558.221 122.811 558.221 127.632C558.221 132.454 559.174 136.715 561.08 140.415C563.098 144.116 565.789 147.031 569.153 149.162C572.63 151.18 576.61 152.189 581.096 152.189ZM602.793 168V146.302L605.989 126.623L602.793 107.112V87.2648H621.295V168H602.793ZM641.828 168V46.8972H660.33V168H641.828Z" fill="white"/>
<defs>
<linearGradient id="paint0_linear_522_595" x1="76.7459" y1="30" x2="76.7459" y2="184.557" gradientUnits="userSpaceOnUse">
<stop stop-color="#3A376F"/>
<stop offset="1" stop-color="#C3BFFF"/>
</linearGradient>
<linearGradient id="paint1_linear_522_595" x1="76.7459" y1="30" x2="76.7459" y2="184.557" gradientUnits="userSpaceOnUse">
<stop stop-color="#3A376F"/>
<stop offset="1" stop-color="#C3BFFF"/>
</linearGradient>
<linearGradient id="paint2_linear_522_595" x1="76.7459" y1="30" x2="76.7459" y2="184.557" gradientUnits="userSpaceOnUse">
<stop stop-color="#3A376F"/>
<stop offset="1" stop-color="#C3BFFF"/>
</linearGradient>
<linearGradient id="paint3_linear_522_595" x1="76.7459" y1="30" x2="76.7459" y2="184.557" gradientUnits="userSpaceOnUse">
<stop stop-color="#3A376F"/>
<stop offset="1" stop-color="#C3BFFF"/>
</linearGradient>
</defs>
</svg>
