<svg width="1104" height="317" viewBox="0 0 1104 317" fill="none" xmlns="http://www.w3.org/2000/svg">
<path d="M224.887 118.769C227.828 41.7133 130.036 35.194 80.7715 42.3016L81.5068 71.7323C81.5068 112.907 99.2633 119.383 135.182 118.769H224.887Z" fill="url(#paint0_linear_522_595)"/>
<path d="M0.625549 119.383C0.625549 62.7671 50.6248 42.3016 75.6245 42.3016V71.7323C75.6245 93.0752 69.8519 118.769 40.4406 118.769L0.625549 119.383Z" fill="url(#paint1_linear_522_595)"/>
<path d="M135.182 123.916H224.887C226.395 145.68 225.516 176.61 224.887 189.355C219.593 255.234 162.878 268.763 135.182 267.293H81.5068V176.12C79.4106 126.142 99.2633 123.916 135.182 123.916Z" fill="url(#paint2_linear_522_595)"/>
<path d="M40.4406 123.916H0.723114C-0.845016 146.587 0.625549 151.734 0.625549 189.355C3.56668 245.235 52.3405 264.597 76.3598 267.293V176.12C75.6245 152.611 76.3598 123.916 40.4406 123.916Z" fill="url(#paint3_linear_522_595)"/>
<path d="M224.887 118.769C227.828 41.7133 130.036 35.194 80.7715 42.3016L81.5068 71.7323C81.5068 112.907 99.2633 119.383 135.182 118.769H224.887Z" stroke="black"/>
<path d="M0.625549 119.383C0.625549 62.7671 50.6248 42.3016 75.6245 42.3016V71.7323C75.6245 93.0752 69.8519 118.769 40.4406 118.769L0.625549 119.383Z" stroke="black"/>
<path d="M135.182 123.916H224.887C226.395 145.68 225.516 176.61 224.887 189.355C219.593 255.234 162.878 268.763 135.182 267.293H81.5068V176.12C79.4106 126.142 99.2633 123.916 135.182 123.916Z" stroke="black"/>
<path d="M40.4406 123.916H0.723114C-0.845016 146.587 0.625549 151.734 0.625549 189.355C3.56668 245.235 52.3405 264.597 76.3598 267.293V176.12C75.6245 152.611 76.3598 123.916 40.4406 123.916Z" stroke="black"/>
<path d="M344.968 255.297C331.281 255.297 319.656 252.823 310.092 247.876C300.528 242.929 291.954 235.674 284.368 226.11L303.661 206.817C308.443 213.743 314.132 219.184 320.728 223.142C327.324 226.935 335.733 228.831 345.957 228.831C355.521 228.831 363.106 226.852 368.713 222.895C374.484 218.937 377.37 213.495 377.37 206.57C377.37 200.799 375.886 196.099 372.917 192.471C369.949 188.844 365.992 185.875 361.045 183.567C356.263 181.093 350.904 178.95 344.968 177.136C339.196 175.157 333.342 173.014 327.406 170.705C321.635 168.232 316.276 165.181 311.329 161.553C306.547 157.926 302.672 153.226 299.704 147.455C296.736 141.683 295.251 134.345 295.251 125.441C295.251 115.217 297.725 106.56 302.672 99.4699C307.784 92.2145 314.627 86.6905 323.201 82.8979C331.776 79.1053 341.34 77.209 351.893 77.209C363.271 77.209 373.412 79.4351 382.317 83.8873C391.386 88.3395 398.724 94.0284 404.33 100.954L385.037 120.247C380.09 114.64 374.896 110.518 369.455 107.88C364.178 105.076 358.077 103.675 351.151 103.675C342.577 103.675 335.816 105.406 330.869 108.869C326.087 112.332 323.696 117.196 323.696 123.462C323.696 128.739 325.18 133.026 328.148 136.324C331.116 139.457 334.991 142.178 339.773 144.487C344.72 146.63 350.079 148.691 355.851 150.67C361.787 152.649 367.641 154.875 373.412 157.348C379.348 159.822 384.708 163.037 389.49 166.995C394.436 170.787 398.394 175.734 401.362 181.835C404.33 187.937 405.814 195.604 405.814 204.838C405.814 220.339 400.29 232.623 389.242 241.693C378.359 250.762 363.601 255.297 344.968 255.297ZM464.939 254.06L414.234 134.098H444.162L478.79 222.153H470.133L506.74 134.098H536.916L481.758 254.06H464.939ZM429.569 302.292L466.423 226.357L481.758 254.06L459.745 302.292H429.569ZM633.098 252.823V184.309C633.098 176.394 630.542 169.881 625.43 164.769C620.484 159.657 614.053 157.101 606.138 157.101C600.861 157.101 596.161 158.255 592.039 160.564C587.917 162.872 584.701 166.088 582.393 170.21C580.084 174.333 578.93 179.032 578.93 184.309L568.294 178.373C568.294 169.303 570.273 161.306 574.23 154.38C578.188 147.29 583.629 141.766 590.555 137.808C597.646 133.686 605.561 131.625 614.3 131.625C623.204 131.625 631.119 133.933 638.045 138.55C644.971 143.002 650.412 148.856 654.37 156.112C658.327 163.202 660.306 170.623 660.306 178.373V252.823H633.098ZM551.722 252.823V134.098H578.93V252.823H551.722Z" fill="white"/>
<path d="M849.098 250.473C839.039 250.473 830.052 248.247 822.137 243.795C814.387 239.343 808.286 233.242 803.834 225.492C799.547 217.577 797.403 208.507 797.403 198.284V129.275H824.611V197.047C824.611 202.819 825.518 207.765 827.332 211.888C829.31 215.845 832.114 218.896 835.741 221.04C839.534 223.183 843.986 224.255 849.098 224.255C857.013 224.255 863.032 221.946 867.154 217.329C871.441 212.547 873.585 205.787 873.585 197.047V129.275H900.793V198.284C900.793 208.672 898.567 217.824 894.115 225.739C889.827 233.489 883.809 239.59 876.058 244.042C868.308 248.33 859.321 250.473 849.098 250.473ZM928.149 248V69.9124H955.357V248H928.149ZM1040.8 250.473C1028.92 250.473 1018.2 247.835 1008.64 242.558C999.242 237.117 991.739 229.697 986.132 220.297C980.691 210.898 977.97 200.345 977.97 188.637C977.97 176.93 980.691 166.459 986.132 157.225C991.574 147.826 998.912 140.405 1008.15 134.964C1017.54 129.522 1027.93 126.801 1039.31 126.801C1050.36 126.801 1060.09 129.357 1068.5 134.469C1077.07 139.581 1083.75 146.589 1088.53 155.493C1093.48 164.398 1095.95 174.539 1095.95 185.917C1095.95 187.895 1095.79 189.957 1095.46 192.1C1095.29 194.079 1094.96 196.305 1094.47 198.779H997.015V176.518H1080.37L1070.23 185.422C1069.9 178.167 1068.5 172.065 1066.02 167.119C1063.55 162.172 1060.01 158.379 1055.39 155.741C1050.94 153.102 1045.41 151.783 1038.82 151.783C1031.89 151.783 1025.87 153.267 1020.76 156.235C1015.65 159.204 1011.69 163.408 1008.89 168.85C1006.08 174.127 1004.68 180.475 1004.68 187.895C1004.68 195.316 1006.17 201.829 1009.14 207.436C1012.1 213.042 1016.31 217.412 1021.75 220.545C1027.19 223.513 1033.46 224.997 1040.55 224.997C1046.65 224.997 1052.26 223.925 1057.37 221.782C1062.64 219.638 1067.1 216.505 1070.72 212.382L1088.04 229.944C1082.27 236.705 1075.26 241.816 1067.01 245.279C1058.77 248.742 1050.03 250.473 1040.8 250.473Z" fill="white"/>
<path d="M684.597 220.445C715.097 268.445 769.597 252.445 786.597 231.945L777.597 222.945L768.256 213.743C753.597 225.445 747.096 225.632 737.597 225.445C721.13 225.123 714.866 216.681 709.597 208.445L713.453 205.041L689.618 199.397L680.431 222.789L684.597 220.445Z" fill="white"/>
<path d="M686.597 191.945L679.597 207.445C664.597 142.945 729.097 106.445 779.597 141.445L784.097 136.945L784.097 163.945L753.097 163.945L757.097 159.945C717.097 144.945 701.097 176.945 705.597 195.945L686.597 191.945Z" fill="white"/>
<defs>
<linearGradient id="paint0_linear_522_595" x1="112.86" y1="40.1159" x2="112.86" y2="267.397" gradientUnits="userSpaceOnUse">
<stop stop-color="#3A376F"/>
<stop offset="1" stop-color="#C3BFFF"/>
</linearGradient>
<linearGradient id="paint1_linear_522_595" x1="112.86" y1="40.1159" x2="112.86" y2="267.397" gradientUnits="userSpaceOnUse">
<stop stop-color="#3A376F"/>
<stop offset="1" stop-color="#C3BFFF"/>
</linearGradient>
<linearGradient id="paint2_linear_522_595" x1="112.86" y1="40.1159" x2="112.86" y2="267.397" gradientUnits="userSpaceOnUse">
<stop stop-color="#3A376F"/>
<stop offset="1" stop-color="#C3BFFF"/>
</linearGradient>
<linearGradient id="paint3_linear_522_595" x1="112.86" y1="40.1159" x2="112.86" y2="267.397" gradientUnits="userSpaceOnUse">
<stop stop-color="#3A376F"/>
<stop offset="1" stop-color="#C3BFFF"/>
</linearGradient>
</defs>
</svg>
